<svg width="48" height="48" viewBox="0 0 48 48" fill="none" xmlns="http://www.w3.org/2000/svg">
<rect width="48" height="48" rx="8" fill="black"/>
<path d="M22.3408 39H16.8857V38.2412H17.9316L17.1729 29.71H14.1582L13.3174 38.2412H14.3633V39H11.2051V38.2412H12.251L15.2041 9.5918H18.5674L21.2949 38.2412H22.3408V39ZM17.1318 28.9717L15.7373 13.0781L14.1992 28.9717H17.1318ZM19.6133 38.2412L16.9678 10.3506H16.127L18.7725 38.2412H19.6133ZM33.9072 34.9189C33.9072 36.0947 33.415 37.1064 32.4307 37.9541C31.4463 38.7881 30.2568 39.2051 28.8623 39.2051C27.4814 39.2051 26.292 38.7881 25.2939 37.9541C24.3096 37.1064 23.8174 36.0947 23.8174 34.9189V13.6729C23.8174 12.4971 24.3096 11.4922 25.2939 10.6582C26.292 9.81055 27.4814 9.38672 28.8623 9.38672C30.2568 9.38672 31.4463 9.81055 32.4307 10.6582C33.415 11.4922 33.9072 12.4971 33.9072 13.6729V18.4102H30.5439V11.8271C30.5439 11.3623 30.3799 10.9658 30.0518 10.6377C29.7236 10.3096 29.3271 10.1455 28.8623 10.1455C28.3975 10.1455 28.001 10.3096 27.6729 10.6377C27.3447 10.9658 27.1807 11.3623 27.1807 11.8271V36.7646C27.1807 37.2295 27.3447 37.626 27.6729 37.9541C28.001 38.2822 28.3975 38.4463 28.8623 38.4463C29.3271 38.4463 29.7236 38.2822 30.0518 37.9541C30.3799 37.626 30.5439 37.2295 30.5439 36.7646V30.1816H33.9072V34.9189ZM32.2256 17.6719V12.9961C32.2256 11.875 31.7197 10.9932 30.708 10.3506C31.1592 10.8701 31.3848 11.5605 31.3848 12.4219V17.6719H32.2256ZM26.0527 37.749C25.6836 37.2158 25.499 36.5391 25.499 35.7188V12.873C25.499 12.0664 25.6836 11.3965 26.0527 10.8633C25.123 11.4922 24.6582 12.333 24.6582 13.3857V35.2266C24.6582 36.2656 25.123 37.1064 26.0527 37.749ZM32.2256 35.5957V30.9404H31.3848V36.1904C31.3848 37.0381 31.1592 37.7217 30.708 38.2412C31.7197 37.5986 32.2256 36.7168 32.2256 35.5957Z" fill="#F6B800"/>
</svg>
